<?xml version="1.0" encoding="iso-8859-1"?>
<!-- Generator: Adobe Illustrator 19.0.0, SVG Export Plug-In . SVG Version: 6.00 Build 0)  -->
<svg version="1.1" id="Capa_1" xmlns="http://www.w3.org/2000/svg" xmlns:xlink="http://www.w3.org/1999/xlink" x="0px" y="0px"
	 viewBox="0 0 512 512" style="enable-background:new 0 0 512 512;" xml:space="preserve">
<g>
	<g>
		<path d="M473.465,122.489l-210-120.5c-4.623-2.652-10.308-2.652-14.931,0l-210,120.5C33.874,125.164,31,130.127,31,135.5v241
			c0,5.373,2.874,10.336,7.535,13.011l210,120.5c2.312,1.326,4.889,1.989,7.465,1.989s5.154-0.663,7.465-1.989l210-120.5
			c4.661-2.675,7.535-7.638,7.535-13.011v-241C481,130.127,478.126,125.164,473.465,122.489z M291,386h-70c-8.284,0-15-6.716-15-15
			s6.716-15,15-15h70c8.284,0,15,6.716,15,15S299.284,386,291,386z M350.876,240.55c-2.437,5.35-7.773,8.783-13.651,8.783H306V321
			c0,8.284-6.716,15-15,15h-70c-8.284,0-15-6.716-15-15v-71.667h-31.225c-5.878,0-11.215-3.434-13.651-8.783
			c-2.436-5.35-1.523-11.63,2.336-16.064l81.225-93.333C247.534,127.879,251.661,126,256,126s8.466,1.879,11.315,5.152
			l81.225,93.333C352.399,228.92,353.313,235.2,350.876,240.55z"/>
	</g>
</g>
<g>
</g>
<g>
</g>
<g>
</g>
<g>
</g>
<g>
</g>
<g>
</g>
<g>
</g>
<g>
</g>
<g>
</g>
<g>
</g>
<g>
</g>
<g>
</g>
<g>
</g>
<g>
</g>
<g>
</g>
</svg>
